<?xml version="1.0" encoding="UTF-8"?>
<svg width="136px" height="23px" viewBox="0 0 136 23" version="1.1" xmlns="http://www.w3.org/2000/svg" xmlns:xlink="http://www.w3.org/1999/xlink">
    <!-- Generator: Sketch 42 (36781) - http://www.bohemiancoding.com/sketch -->
    <title>Logo</title>
    <desc>Created with Sketch.</desc>
    <defs>
        <polygon id="path-1" points="0.0226583851 15.0240385 27.2661294 15.0240385 27.2661294 0.284659501 0.0226583851 0.284659501 0.0226583851 15.0240385"></polygon>
    </defs>
    <g id="Symbols" stroke="none" stroke-width="1" fill="none" fill-rule="evenodd">
        <g id="Header" transform="translate(-24.000000, -28.000000)">
            <g id="Logo">
                <g transform="translate(24.000000, 28.000000)">
                    <polygon id="Fill-1" fill="#3575D3" points="0 6.46634615 6.14668323 6.46634615 6.14668323 0.270432692 0 0.270432692"></polygon>
                    <polygon id="Fill-2" fill="#3575D3" points="7.93043478 6.46634615 14.0798012 6.46634615 14.0798012 0.270432692 7.93043478 0.270432692"></polygon>
                    <polygon id="Fill-3" fill="#3575D3" points="15.8632547 6.46634615 22.0126211 6.46634615 22.0126211 0.270432692 15.8632547 0.270432692"></polygon>
                    <polygon id="Fill-4" fill="#3575D3" points="0 14.4804687 6.14668323 14.4804687 6.14668323 8.28395433 0 8.28395433"></polygon>
                    <polygon id="Fill-5" fill="#3575D3" points="7.93043478 14.4804687 14.0798012 14.4804687 14.0798012 8.28395433 7.93043478 8.28395433"></polygon>
                    <polygon id="Fill-6" fill="#3575D3" points="15.8632547 14.4804687 22.0126211 14.4804687 22.0126211 8.28395433 15.8632547 8.28395433"></polygon>
                    <polygon id="Fill-7" fill="#3575D3" points="0 22.4945913 6.14668323 22.4945913 6.14668323 16.2977764 0 16.2977764"></polygon>
                    <polygon id="Fill-8" fill="#3575D3" points="7.93043478 22.4945913 14.0798012 22.4945913 14.0798012 16.2977764 7.93043478 16.2977764"></polygon>
                    <polygon id="Fill-9" fill="#3575D3" points="15.8632547 22.4945913 22.0126211 22.4945913 22.0126211 16.2977764 15.8632547 16.2977764"></polygon>
                    <path d="M34.5919006,20.4675481 C35.897441,21.1334135 37.171677,21.4029447 38.304,21.4029447 C41.1983106,21.4029447 43.8880994,19.6908053 43.8880994,15.4263822 C43.8725963,11.6688702 41.7960745,9.51292067 39.1378882,9.51292067 C37.328795,9.51292067 35.6929193,10.5117187 34.5919006,11.7322716 L34.5919006,20.4675481 L34.5919006,20.4675481 Z M34.5919006,9.86177885 C35.7716273,8.81520433 37.4075031,8.05438702 39.2795031,8.05438702 C42.425441,8.05438702 45.4610683,10.2103365 45.4610683,15.4104567 C45.4610683,20.7848558 42.0477019,22.8140024 38.3985093,22.8140024 C36.3377888,22.8140024 34.4344845,22.1640625 33.0189317,21.3395433 L33.0189317,0.286057692 L34.5919006,0.286057692 L34.5919006,9.86177885 L34.5919006,9.86177885 Z" id="Fill-10" fill="#3575D3"></path>
                    <polygon id="Fill-11" fill="#3575D3" points="48.213764 22.5603966 49.7238261 22.5603966 49.7238261 0.270432692 48.213764 0.270432692"></polygon>
                    <g id="Group-15" transform="translate(53.366460, 7.812500)">
                        <mask id="mask-2" fill="white">
                            <use xlink:href="#path-1"></use>
                        </mask>
                        <g id="Clip-13"></g>
                        <path d="M1.59562733,9.18329327 C1.59562733,12.5760216 3.24730435,13.4954928 4.89868323,13.4954928 C6.75488199,13.4954928 8.4536646,12.3221154 9.77500621,10.3722957 L9.77500621,0.479567308 L11.3479752,0.479567308 L11.3479752,14.7478966 L9.77500621,14.7478966 L9.77500621,11.9891827 C8.53237267,13.765024 6.55036025,14.9696514 4.39542857,14.9696514 C2.16178882,14.9696514 0.0226583851,13.6856971 0.0226583851,9.34164663 L0.0226583851,0.479567308 L1.59562733,0.479567308 L1.59562733,9.18329327 L9.08458237,-7.94282582" id="Fill-12" fill="#3575D3" mask="url(#mask-2)"></path>
                        <path d="M25.7408199,6.6625601 C25.8037267,4.17367788 24.0891429,1.81129808 21.163528,1.71634615 C18.3321242,1.62109375 16.0984845,3.74549279 15.909764,6.6625601 L25.7408199,6.6625601 L25.7408199,6.6625601 Z M26.3856894,13.7965745 C25.1588571,14.4624399 23.3971677,15.0964543 21.3364472,15.0174279 C16.5859379,14.858774 14.1480745,11.1015625 14.3051925,7.09044471 C14.4784099,2.60396635 17.7814658,0.162560096 21.3051429,0.289362981 C25.1117516,0.384615385 27.7070311,3.46003606 27.2037764,7.9624399 L15.8468571,7.9624399 C15.8310559,10.609976 17.6872547,13.4320913 21.4151553,13.5588942 C23.0668323,13.6222957 24.5923975,13.1307091 25.8353292,12.4648438 L26.3856894,13.7965745 L26.3856894,13.7965745 Z" id="Fill-14" fill="#3575D3" mask="url(#mask-2)"></path>
                    </g>
                    <path d="M85.6981863,11.0823317 C86.8621118,9.30679087 88.7338137,8.0703125 90.8890435,8.0703125 C93.7201491,8.0703125 95.3876273,10.226262 95.3876273,13.4128606 L95.3876273,22.5603966 L93.8304596,22.5603966 L93.8304596,13.7457933 C93.8304596,10.6544471 92.2574907,9.56039663 90.5587081,9.54447115 C88.4979876,9.52884615 86.6575901,11.1457332 85.6981863,12.7629207 L85.6981863,22.5603966 L84.1252174,22.5603966 L84.1252174,0.286057692 L85.6981863,0.286057692 L85.6981863,11.0823317" id="Fill-16" fill="#3575D3"></path>
                    <path d="M99.5403727,15.4104567 C99.5403727,18.5652043 101.364969,21.3079928 104.762534,21.3079928 C108.050087,21.3079928 110.000795,18.5492788 110.000795,15.4104567 C110.000795,12.2397837 108.065888,9.54447115 104.762534,9.54447115 C101.38077,9.54447115 99.5403727,12.2397837 99.5403727,15.4104567 L99.5403727,15.4104567 Z M111.573764,15.4104567 C111.573764,20.1346154 108.396224,22.7821514 104.762534,22.7821514 C100.688497,22.7821514 97.9516025,19.4846755 97.9516025,15.4104567 C97.9516025,11.0823317 100.971727,8.0703125 104.762534,8.0703125 C108.412025,8.0703125 111.573764,10.7971755 111.573764,15.4104567 L111.573764,15.4104567 Z" id="Fill-17" fill="#3575D3"></path>
                    <path d="M115.16005,20.1030649 C116.339776,20.8957332 117.661118,21.3079928 118.935056,21.3079928 C120.413814,21.3079928 122.254211,20.6896034 122.23841,19.1835938 C122.23841,17.8993389 120.885764,16.9005409 118.715031,16.0444712 C116.308174,15.077524 114.200646,14.1896034 114.200646,11.906851 C114.200646,9.62379808 116.323975,8.10186298 119.108273,8.10186298 C120.57123,8.10186298 121.908075,8.53004808 123.040696,9.13251202 L122.442932,10.3849159 C121.546435,9.90925481 120.429615,9.54447115 119.155379,9.54447115 C116.811727,9.54447115 115.757814,10.7019231 115.757814,11.906851 C115.757814,13.4444111 117.488199,14.0153245 119.674435,14.9188702 C123.087801,16.2665264 123.811379,17.804387 123.811379,19.1201923 C123.811379,21.3554688 121.735155,22.7665264 118.98246,22.7665264 C117.424994,22.7665264 115.899429,22.3067909 114.483578,21.4663462 L115.16005,20.1030649" id="Fill-18" fill="#3575D3"></path>
                    <path d="M134.130186,8.29206731 L134.130186,9.63972356 L129.442584,9.63972356 L129.442584,17.4396034 C129.442584,19.7382812 130.418087,21.2286659 132.478509,21.3079928 C133.359503,21.3554687 134.303106,21.1334135 135.136994,20.7530048 L135.593143,22.148137 C134.649242,22.5126202 133.564025,22.7980769 132.447205,22.7821514 C129.899031,22.7821514 127.869615,21.2127404 127.869615,17.5504808 L127.869615,9.63972356 L125.337242,9.63972356 L125.337242,8.29206731 L127.869615,8.29206731 L127.869615,3.50450721 L129.442584,3.50450721 L129.442584,8.29206731 L134.130186,8.29206731" id="Fill-19" fill="#3575D3"></path>
                </g>
            </g>
        </g>
    </g>
</svg>