<svg xmlns="http://www.w3.org/2000/svg" xmlns:xlink="http://www.w3.org/1999/xlink" width="754.333" height="246.5" viewBox="0 0 754.333 246.5"><defs><path id="a" d="M0-44.531h1012.506V347.5H0z"/></defs><clipPath id="b"><use xlink:href="#a" overflow="visible"/></clipPath><g clip-path="url(#b)" fill="#FFF"><path d="M208.777 192.907V1.236h64.263c16.485 0 32.97 1.956 46.102 12.853C331.715 24.706 338.7 42.588 338.7 58.793c0 14.809-6.147 30.176-16.764 40.514-12.853 12.573-28.779 15.646-46.102 15.646h-43.028v77.954h-24.029zm64.543-97.791c11.456 0 21.514-1.117 30.455-9.779 6.985-6.985 10.618-16.764 10.618-26.543 0-11.456-4.191-22.911-13.412-30.176-8.103-6.426-16.205-7.264-25.984-7.264h-42.19v73.762h40.513zM449.065 104.895v-6.147c0-24.867-10.897-34.367-36.043-34.367-17.882 0-34.926 5.588-38.837 25.146l-20.396-3.353c3.912-29.617 35.205-38.837 61.189-38.837 15.367 0 32.97 1.676 43.587 13.97C470.3 73.881 470.3 91.763 470.3 107.969v55.042c0 10.338.279 20.676 3.073 29.896H451.58l-2.515-26.543c-10.059 20.396-27.102 29.337-49.734 29.337-26.543 0-49.455-14.809-49.455-43.028 0-17.043 10.618-32.411 26.264-39.396 15.926-7.544 36.881-8.382 54.484-8.382h18.441zm0 16.485h-18.161c-22.353 0-57.557 3.073-57.557 32.411 0 17.603 15.088 24.866 30.734 24.866 26.823 0 44.984-22.911 44.984-48.057v-9.22zM550.208 47.338c9.779 0 19.838 1.956 28.778 6.147 3.633-20.117 13.412-24.587 32.69-24.587l5.588.279.28 17.603h-2.235c-12.853 0-22.911 1.397-25.146 16.205 8.661 9.5 13.69 22.073 13.69 34.926 0 13.97-7.544 27.102-18.161 35.484-10.338 7.824-23.19 10.897-36.043 10.897-6.427 0-13.971-2.235-19.279-2.235-6.705 0-15.088 5.868-15.088 13.132 0 6.706 4.471 10.617 10.618 12.015 9.778 2.235 23.47 1.677 33.528 2.235 12.294.559 30.455.838 41.631 5.029 13.132 5.029 21.794 17.323 21.794 31.293 0 36.043-42.749 40.793-70.131 40.793-13.132 0-29.337-.559-41.631-5.588-13.691-5.588-24.308-15.646-24.308-31.293 0-14.809 8.103-24.029 21.514-28.779-8.103-5.309-13.691-11.734-13.691-22.352 0-13.971 8.103-20.118 19.558-25.426-12.014-9.5-18.44-22.073-18.44-37.44.001-30.736 25.985-48.338 54.484-48.338zm2.794 182.171c10.617 0 27.103-1.676 36.603-6.146 7.823-3.632 12.293-8.103 12.293-16.765 0-13.69-15.367-16.205-30.175-17.043-8.383-.56-32.69-.279-48.058-2.235-8.383 3.911-15.367 9.22-15.367 19.278 0 19.558 30.176 22.911 44.704 22.911zm-2.794-102.261c19 0 31.573-12.573 31.573-31.573 0-17.882-14.25-31.014-31.573-31.014-18.44 0-31.852 13.132-31.852 31.293 0 19.279 12.574 31.294 31.852 31.294zM751.938 154.07c-8.382 25.984-33.249 41.631-60.351 41.631-43.028 0-65.102-34.087-65.102-73.763 0-39.116 23.19-74.601 65.66-74.601 44.146 0 63.145 36.881 62.027 76.277h-103.1c0 11.176.559 21.514 5.867 32.131 6.706 13.412 21.514 21.515 36.322 21.515 18.44 0 31.853-10.617 37.999-27.382l20.678 4.192zm-21.792-46.66c.279-23.47-12.853-43.308-37.999-43.308-23.75 0-39.117 20.956-39.955 43.308h77.954z"/></g><path clip-path="url(#b)" fill="none" stroke="#FFF" stroke-width="12" stroke-miterlimit="10" d="M72.024 7.456h113.91v179.901H6.033V72.671"/><path clip-path="url(#b)" fill="#FFF" d="M143.386 23.882c8.639 0 15.46 6.819 15.46 15.458s-6.821 15.232-15.46 15.232c-8.639 0-15.232-6.593-15.232-15.232s6.593-15.458 15.232-15.458m11.14 52.059h-22.053v113.673h22.053V75.941z"/><path clip-path="url(#b)" fill="none" stroke="#FFF" stroke-width="12" stroke-miterlimit="10" d="M65.814 67.054l-51.166-.001 51.737-50.93z"/></svg>
